<svg xmlns="http://www.w3.org/2000/svg" viewBox="0 0 481.2 481.2"><path d="M410.7,70.5a240.46,240.46,0,0,0-340.2,0A240.6,240.6,0,0,0,240.6,481.2,240.7,240.7,0,0,0,481.2,240.6,238.79,238.79,0,0,0,410.7,70.5Zm1,42.4L352.6,214.2,244.6,27A213.54,213.54,0,0,1,411.7,112.9ZM336.9,241.1l-48.3,82.7H193l-48.5-83.3,48-83.1h96.1ZM214.3,28.6,273,130.4H57.7A213.94,213.94,0,0,1,214.3,28.6ZM27,240.6a211.79,211.79,0,0,1,16.9-83.2H161.4L53.7,343.8A211.91,211.91,0,0,1,27,240.6ZM70.2,369.2,129,267.4,237.8,454.1C169.4,453.3,108.7,420.1,70.2,369.2ZM268,452.4,208.8,350.7H423.6C390.6,405.3,334,444,268,452.4Zm51.9-128.6L428.1,138.4a213.19,213.19,0,0,1,9.2,185.4Z" fill="#fff"/></svg>