<?xml version="1.0" standalone="no"?>
<!DOCTYPE svg PUBLIC "-//W3C//DTD SVG 20010904//EN"
 "http://www.w3.org/TR/2001/REC-SVG-20010904/DTD/svg10.dtd">
<svg version="1.0" xmlns="http://www.w3.org/2000/svg"
 width="700.000000pt" height="700.000000pt" viewBox="0 0 700.000000 700.000000"
 preserveAspectRatio="xMidYMid meet">
<metadata>
Created by potrace 1.11, written by Peter Selinger 2001-2013
</metadata>
<g transform="translate(0.000000,700.000000) scale(0.100000,-0.100000)"
fill="#000000" stroke="none">
<path d="M3278 6996 c-1 -2 -42 -6 -89 -10 -47 -4 -96 -9 -109 -11 -13 -2 -48
-7 -79 -10 -31 -3 -63 -7 -71 -10 -8 -2 -33 -7 -55 -10 -32 -4 -179 -38 -309
-70 -220 -54 -601 -214 -805 -337 -34 -21 -65 -38 -68 -38 -4 0 -237 -155
-257 -171 -6 -5 -40 -32 -76 -60 -63 -49 -118 -94 -170 -139 -37 -32 -208
-200 -265 -261 -373 -398 -665 -926 -809 -1469 -25 -92 -42 -172 -71 -330 -3
-14 -7 -47 -11 -75 -3 -27 -8 -57 -9 -66 -19 -98 -27 -580 -13 -724 4 -38 10
-97 13 -130 27 -268 132 -662 250 -940 238 -558 643 -1075 1122 -1432 43 -32
80 -61 81 -65 2 -5 8 -8 13 -8 6 0 38 -19 72 -43 174 -120 356 -218 602 -322
17 -7 46 -19 65 -28 81 -34 346 -118 418 -132 9 -1 35 -8 57 -13 22 -6 53 -13
69 -16 16 -3 52 -10 80 -15 28 -6 65 -12 81 -15 32 -5 104 -15 145 -22 171
-26 655 -25 850 2 89 12 104 15 124 19 12 2 37 7 56 10 200 29 490 113 720
207 1014 415 1794 1311 2060 2368 30 120 74 352 86 455 4 33 9 76 11 95 8 73
10 519 2 602 -13 141 -22 208 -39 308 -6 36 -13 79 -16 95 -25 142 -109 429
-179 605 -289 740 -869 1395 -1576 1783 -25 13 -54 30 -65 36 -57 32 -265 125
-371 165 -206 78 -480 151 -683 182 -25 3 -54 8 -65 10 -10 2 -49 6 -85 10
-36 3 -76 8 -90 11 -27 5 -536 14 -542 9z m502 -402 c165 -15 326 -42 494 -85
80 -20 302 -91 341 -108 11 -5 65 -29 120 -52 466 -198 903 -537 1220 -947 6
-7 16 -19 22 -27 14 -15 21 -1 -147 -290 -51 -88 -101 -172 -111 -187 -11 -15
-19 -29 -19 -31 0 -3 -37 -67 -81 -143 -45 -77 -90 -152 -99 -169 -10 -16 -82
-140 -160 -275 -79 -135 -148 -254 -154 -265 -6 -11 -19 -32 -29 -47 -9 -16
-24 -40 -33 -54 l-16 -26 -49 83 c-27 45 -49 83 -49 85 0 1 -73 128 -162 281
-88 153 -170 294 -181 313 -11 19 -78 136 -149 260 -162 280 -367 635 -618
1070 -106 184 -228 396 -271 471 -44 74 -79 141 -79 147 0 11 64 10 210 -4z
m-418 -434 c487 -845 582 -1009 596 -1036 l11 -20 -1564 0 -1564 0 21 35 c157
260 404 542 663 757 385 320 870 552 1355 648 176 35 171 34 209 32 33 -1 34
-2 273 -416z m2937 -1315 c113 -234 211 -529 250 -750 6 -33 13 -69 15 -80 4
-20 17 -113 22 -150 26 -216 24 -578 -6 -770 -5 -33 -11 -78 -15 -100 -14 -93
-47 -242 -80 -352 -19 -65 -37 -125 -39 -133 -3 -8 -22 -60 -43 -115 l-38
-100 -853 -3 c-468 -1 -852 0 -852 3 0 3 149 260 331 572 182 313 340 583 350
601 11 17 27 47 38 65 10 17 80 138 156 267 76 129 147 251 157 270 11 19 51
87 88 150 37 63 77 131 87 150 11 19 96 165 189 323 192 330 166 314 243 152z
m-3959 -142 c0 -5 -73 -133 -185 -325 -5 -9 -20 -34 -31 -55 -12 -21 -162
-281 -334 -578 -172 -297 -321 -555 -331 -572 -10 -18 -69 -119 -130 -225 -61
-106 -154 -267 -207 -358 -52 -91 -138 -239 -190 -330 -53 -91 -107 -184 -120
-208 -13 -23 -27 -42 -31 -42 -11 0 -116 215 -166 341 -90 223 -167 514 -190
714 -4 33 -9 62 -10 65 -23 39 -23 701 0 740 1 3 6 32 10 65 5 49 35 211 50
275 29 125 103 359 144 453 l20 47 851 0 c467 0 850 -3 850 -7z m2121 -448
c143 -247 300 -520 350 -606 l89 -156 -25 -44 c-14 -24 -30 -51 -35 -59 -5 -8
-37 -62 -70 -120 -33 -58 -64 -112 -69 -120 -6 -8 -54 -91 -108 -183 -54 -93
-106 -183 -117 -200 -10 -18 -77 -132 -148 -254 l-130 -223 -696 0 -697 0 -29
53 c-16 28 -90 156 -164 282 -74 127 -143 246 -154 265 -11 19 -95 163 -186
319 -91 157 -165 290 -165 295 0 6 56 106 123 221 68 116 137 235 153 265 16
30 34 62 41 70 6 8 17 26 24 39 8 13 23 39 33 58 53 94 270 469 301 521 l20
32 700 -2 700 -3 259 -450z m-2339 -1565 c130 -223 245 -421 256 -440 11 -19
63 -109 116 -199 53 -90 96 -165 96 -168 0 -2 14 -24 30 -48 17 -24 30 -46 30
-49 0 -3 17 -34 38 -68 21 -35 41 -68 43 -73 2 -6 23 -42 46 -80 169 -286 673
-1156 673 -1163 0 -9 -24 -9 -195 3 -90 6 -107 8 -200 21 -42 5 -151 26 -265
50 -65 13 -155 39 -264 75 -520 173 -1013 499 -1356 898 -30 35 -60 69 -65 75
-6 6 -27 33 -47 59 l-37 48 71 122 c39 67 82 142 96 167 14 25 33 57 43 72 11
14 19 29 19 32 0 4 12 25 26 47 14 23 37 62 51 87 15 26 34 61 44 77 10 17 30
53 44 80 15 28 32 56 37 63 6 7 20 30 32 51 94 174 392 678 397 673 3 -4 112
-189 241 -412z m4017 -827 c-135 -227 -398 -535 -604 -708 -38 -32 -78 -67
-89 -76 -37 -35 -245 -180 -332 -233 -189 -113 -422 -223 -610 -287 -88 -29
-321 -93 -379 -102 -16 -3 -52 -10 -80 -15 -91 -18 -155 -24 -155 -13 0 5 -22
46 -50 91 -27 45 -50 84 -50 87 0 3 -8 17 -18 31 -11 15 -33 52 -49 82 -17 30
-70 123 -118 205 -77 131 -264 452 -315 540 -56 98 -111 192 -120 205 -7 12
-112 195 -127 223 -2 4 698 7 1557 7 l1562 0 -23 -37z"/>
</g>
</svg>
